<?xml version="1.0" standalone="no"?><!DOCTYPE svg PUBLIC "-//W3C//DTD SVG 1.1//EN" "http://www.w3.org/Graphics/SVG/1.1/DTD/svg11.dtd"><svg t="1698125628445" class="icon" viewBox="0 0 1117 1024" version="1.1" xmlns="http://www.w3.org/2000/svg" p-id="12356" xmlns:xlink="http://www.w3.org/1999/xlink" width="218.1640625" height="200"><path d="M875.706182 1013.341091H241.384727a110.685091 110.685091 0 0 1-109.707636-109.707636v-474.763637a110.685091 110.685091 0 0 1 109.707636-109.707636h634.321455a110.685091 110.685091 0 0 1 109.707636 109.707636v474.763637a110.685091 110.685091 0 0 1-109.707636 109.707636zM241.384727 379.019636c-27.927273 0-49.896727 21.922909-49.896727 49.850182v474.763637c0 27.927273 21.969455 49.896727 49.896727 49.896727h634.321455c27.927273 0 49.896727-21.969455 49.896727-49.896727v-474.763637c0-27.927273-21.969455-49.850182-49.896727-49.850182H241.384727z" p-id="12357" fill="#85858a"></path><path d="M319.162182 560.546909a53.853091 53.853091 0 1 0 107.706182 0 53.853091 53.853091 0 0 0-107.706182 0zM690.222545 560.546909a53.853091 53.853091 0 1 0 107.706182 0 53.853091 53.853091 0 0 0-107.706182 0zM452.840727 718.149818c-29.928727 0-53.899636 23.924364-53.899636 53.853091s23.970909 53.853091 53.899636 53.853091v-107.706182zM664.203636 823.854545c29.928727 0 53.899636-23.924364 53.899637-53.85309s-23.970909-53.853091-53.899637-53.853091V823.854545z m-211.409454 0h211.409454v-105.704727H452.887273V823.854545zM558.545455 379.019636a30.72 30.72 0 0 1-29.928728-29.928727V135.633455c0-15.965091 13.963636-29.928727 29.928728-29.928728s29.928727 13.963636 29.928727 29.928728v211.456c0 17.966545-13.963636 31.930182-29.928727 31.930181zM29.928727 799.930182A30.72 30.72 0 0 1 0 770.001455v-209.454546c0-15.965091 13.963636-29.928727 29.928727-29.928727s29.928727 11.962182 29.928728 29.928727v211.456c0 15.965091-13.963636 27.927273-29.928728 27.927273z m1057.233455 0a30.72 30.72 0 0 1-29.928727-29.928727v-209.454546c0-15.965091 13.963636-29.928727 29.928727-29.928727s29.928727 13.963636 29.928727 29.928727v211.456c0 15.965091-13.963636 27.927273-29.928727 27.927273z" p-id="12358" fill="#85858a"></path><path d="M558.545455 165.562182A82.152727 82.152727 0 0 1 476.765091 83.781818c0-43.892364 37.888-83.781818 81.780364-83.781818s81.780364 37.888 81.780363 83.781818c0 45.893818-35.886545 81.780364-81.780363 81.780364z m0-103.703273c-11.962182 0-21.922909 9.960727-21.92291 23.924364 0 11.962182 9.960727 21.922909 21.92291 21.922909a22.155636 22.155636 0 0 0 21.922909-21.922909c0-13.963636-9.960727-23.924364-21.922909-23.924364z" p-id="12359" fill="#85858a"></path></svg>